<mxfile host="app.diagrams.net" modified="2020-09-13T18:16:45.321Z" agent="5.0 (Windows NT 10.0; Win64; x64) AppleWebKit/537.36 (KHTML, like Gecko) Chrome/85.0.4183.102 Safari/537.36" etag="K7DnLCAz_v4_vzGmewKZ" version="13.6.10" type="github">
  <diagram id="C5RBs43oDa-KdzZeNtuy" name="Page-1">
    <mxGraphModel dx="1422" dy="762" grid="1" gridSize="10" guides="1" tooltips="1" connect="1" arrows="1" fold="1" page="1" pageScale="1" pageWidth="827" pageHeight="1169" math="0" shadow="0">
      <root>
        <mxCell id="WIyWlLk6GJQsqaUBKTNV-0" />
        <mxCell id="WIyWlLk6GJQsqaUBKTNV-1" parent="WIyWlLk6GJQsqaUBKTNV-0" />
        <mxCell id="c-RoGRiOBo4SbbYrfxfl-9" value="" style="whiteSpace=wrap;html=1;aspect=fixed;" vertex="1" parent="WIyWlLk6GJQsqaUBKTNV-1">
          <mxGeometry x="179.5" y="680" width="521" height="521" as="geometry" />
        </mxCell>
        <mxCell id="zkfFHV4jXpPFQw0GAbJ--6" value="Caso de Uso para Abastecer Estoque&#xa;Escopo: estoque da loja&#xa;Ator: proprietário da loja, funcionário e fornecedor" style="swimlane;fontStyle=1;align=center;verticalAlign=top;childLayout=stackLayout;horizontal=1;startSize=60;horizontalStack=0;resizeParent=1;resizeLast=0;collapsible=1;marginBottom=0;rounded=0;shadow=0;strokeWidth=1;" parent="WIyWlLk6GJQsqaUBKTNV-1" vertex="1">
          <mxGeometry x="20" y="20" width="540" height="310" as="geometry">
            <mxRectangle x="130" y="150" width="160" height="26" as="alternateBounds" />
          </mxGeometry>
        </mxCell>
        <mxCell id="zkfFHV4jXpPFQw0GAbJ--7" value="Interessado: proprietário da loja, funcionário" style="text;align=left;verticalAlign=top;spacingLeft=4;spacingRight=4;overflow=hidden;rotatable=0;points=[[0,0.5],[1,0.5]];portConstraint=eastwest;fontSize=13;" parent="zkfFHV4jXpPFQw0GAbJ--6" vertex="1">
          <mxGeometry y="60" width="540" height="30" as="geometry" />
        </mxCell>
        <mxCell id="zkfFHV4jXpPFQw0GAbJ--8" value="Garantia de sucesso:&#xa;Efetuar a compra de colecionáveis para abastecer o estoque da loja e&#xa;receber os colecionáveis do fornecedor." style="text;align=left;verticalAlign=top;spacingLeft=4;spacingRight=4;overflow=hidden;rotatable=0;points=[[0,0.5],[1,0.5]];portConstraint=eastwest;rounded=0;shadow=0;html=0;fontSize=13;" parent="zkfFHV4jXpPFQw0GAbJ--6" vertex="1">
          <mxGeometry y="90" width="540" height="70" as="geometry" />
        </mxCell>
        <mxCell id="zkfFHV4jXpPFQw0GAbJ--9" value="" style="line;html=1;strokeWidth=1;align=left;verticalAlign=middle;spacingTop=-1;spacingLeft=3;spacingRight=3;rotatable=0;labelPosition=right;points=[];portConstraint=eastwest;" parent="zkfFHV4jXpPFQw0GAbJ--6" vertex="1">
          <mxGeometry y="160" width="540" height="8" as="geometry" />
        </mxCell>
        <mxCell id="zkfFHV4jXpPFQw0GAbJ--10" value="Cenário principal:&#xa;Proprietário efetua compra de novos colecionáveis&#xa;Fornecedor entrega os colecionáveis&#xa;Funcionário recebe os colecionáveis e atualiza o inventario no sistema.&#xa;" style="text;align=left;verticalAlign=top;spacingLeft=4;spacingRight=4;overflow=hidden;rotatable=0;points=[[0,0.5],[1,0.5]];portConstraint=eastwest;fontStyle=4;fontSize=13;" parent="zkfFHV4jXpPFQw0GAbJ--6" vertex="1">
          <mxGeometry y="168" width="540" height="72" as="geometry" />
        </mxCell>
        <mxCell id="zkfFHV4jXpPFQw0GAbJ--11" value="Cenário alternativo:&#xa;Na ausência do funcionário, o proprietário recebe os colecionáveis e atualiza o &#xa;sistema da loja" style="text;align=left;verticalAlign=top;spacingLeft=4;spacingRight=4;overflow=hidden;rotatable=0;points=[[0,0.5],[1,0.5]];portConstraint=eastwest;fontSize=13;" parent="zkfFHV4jXpPFQw0GAbJ--6" vertex="1">
          <mxGeometry y="240" width="540" height="70" as="geometry" />
        </mxCell>
        <mxCell id="c-RoGRiOBo4SbbYrfxfl-2" value="Caso de Uso para Comprar Revistas em Quadrinho&#xa;Escopo: central de vendas&#xa;Ator: vendedor&#xa;" style="swimlane;fontStyle=1;align=center;verticalAlign=top;childLayout=stackLayout;horizontal=1;startSize=60;horizontalStack=0;resizeParent=1;resizeLast=0;collapsible=1;marginBottom=0;rounded=0;shadow=0;strokeWidth=1;" vertex="1" parent="WIyWlLk6GJQsqaUBKTNV-1">
          <mxGeometry x="20" y="360" width="540" height="290" as="geometry">
            <mxRectangle x="130" y="150" width="160" height="26" as="alternateBounds" />
          </mxGeometry>
        </mxCell>
        <mxCell id="c-RoGRiOBo4SbbYrfxfl-3" value="Interessado: proprietário da loja, vendedor" style="text;align=left;verticalAlign=top;spacingLeft=4;spacingRight=4;overflow=hidden;rotatable=0;points=[[0,0.5],[1,0.5]];portConstraint=eastwest;fontSize=13;" vertex="1" parent="c-RoGRiOBo4SbbYrfxfl-2">
          <mxGeometry y="60" width="540" height="30" as="geometry" />
        </mxCell>
        <mxCell id="c-RoGRiOBo4SbbYrfxfl-4" value="Garantia de sucesso: Vender uma revista em quadrinho" style="text;align=left;verticalAlign=top;spacingLeft=4;spacingRight=4;overflow=hidden;rotatable=0;points=[[0,0.5],[1,0.5]];portConstraint=eastwest;rounded=0;shadow=0;html=0;fontSize=13;" vertex="1" parent="c-RoGRiOBo4SbbYrfxfl-2">
          <mxGeometry y="90" width="540" height="30" as="geometry" />
        </mxCell>
        <mxCell id="c-RoGRiOBo4SbbYrfxfl-5" value="" style="line;html=1;strokeWidth=1;align=left;verticalAlign=middle;spacingTop=-1;spacingLeft=3;spacingRight=3;rotatable=0;labelPosition=right;points=[];portConstraint=eastwest;" vertex="1" parent="c-RoGRiOBo4SbbYrfxfl-2">
          <mxGeometry y="120" width="540" height="8" as="geometry" />
        </mxCell>
        <mxCell id="c-RoGRiOBo4SbbYrfxfl-6" value="Cenário principal:&#xa;Vendedor registra a compra da revista no sistema, informa o valor da compra, e pergunta&#xa;a forma de pagamento.&#xa;Ao realizar pagamento, o sistema atualiza o estoque da revista vendida.&#xa;Vendedor coloca a revista em uma sacola plastica, entrega ao comprador" style="text;align=left;verticalAlign=top;spacingLeft=4;spacingRight=4;overflow=hidden;rotatable=0;points=[[0,0.5],[1,0.5]];portConstraint=eastwest;fontStyle=4;fontSize=13;" vertex="1" parent="c-RoGRiOBo4SbbYrfxfl-2">
          <mxGeometry y="128" width="540" height="92" as="geometry" />
        </mxCell>
        <mxCell id="c-RoGRiOBo4SbbYrfxfl-7" value="Cenário alternativo:&#xa;Na ausência de uma sacola plastica é utilizado uma sacola de papelão" style="text;align=left;verticalAlign=top;spacingLeft=4;spacingRight=4;overflow=hidden;rotatable=0;points=[[0,0.5],[1,0.5]];portConstraint=eastwest;fontSize=13;" vertex="1" parent="c-RoGRiOBo4SbbYrfxfl-2">
          <mxGeometry y="220" width="540" height="70" as="geometry" />
        </mxCell>
        <mxCell id="c-RoGRiOBo4SbbYrfxfl-11" value="Representação gráfica da venda de Revista em Quadrinho" style="text;align=left;verticalAlign=top;spacingLeft=4;spacingRight=4;overflow=hidden;rotatable=0;points=[[0,0.5],[1,0.5]];portConstraint=eastwest;fontSize=13;" vertex="1" parent="WIyWlLk6GJQsqaUBKTNV-1">
          <mxGeometry x="230" y="690" width="440" height="30" as="geometry" />
        </mxCell>
        <mxCell id="c-RoGRiOBo4SbbYrfxfl-12" value="Vendedor" style="shape=umlActor;verticalLabelPosition=bottom;verticalAlign=top;html=1;outlineConnect=0;" vertex="1" parent="WIyWlLk6GJQsqaUBKTNV-1">
          <mxGeometry x="210" y="770" width="30" height="60" as="geometry" />
        </mxCell>
        <mxCell id="c-RoGRiOBo4SbbYrfxfl-27" style="edgeStyle=orthogonalEdgeStyle;rounded=0;orthogonalLoop=1;jettySize=auto;html=1;fontSize=13;" edge="1" parent="WIyWlLk6GJQsqaUBKTNV-1" source="c-RoGRiOBo4SbbYrfxfl-13" target="c-RoGRiOBo4SbbYrfxfl-17">
          <mxGeometry relative="1" as="geometry" />
        </mxCell>
        <mxCell id="c-RoGRiOBo4SbbYrfxfl-13" value="Receber pedido" style="ellipse;whiteSpace=wrap;html=1;fillColor=#fff2cc;strokeColor=#d6b656;" vertex="1" parent="WIyWlLk6GJQsqaUBKTNV-1">
          <mxGeometry x="310" y="760" width="120" height="80" as="geometry" />
        </mxCell>
        <mxCell id="c-RoGRiOBo4SbbYrfxfl-15" value="" style="endArrow=none;html=1;exitX=0;exitY=0.5;exitDx=0;exitDy=0;entryX=0.5;entryY=0.5;entryDx=0;entryDy=0;entryPerimeter=0;" edge="1" parent="WIyWlLk6GJQsqaUBKTNV-1" source="c-RoGRiOBo4SbbYrfxfl-13" target="c-RoGRiOBo4SbbYrfxfl-12">
          <mxGeometry width="50" height="50" relative="1" as="geometry">
            <mxPoint x="290" y="840" as="sourcePoint" />
            <mxPoint x="240" y="817" as="targetPoint" />
          </mxGeometry>
        </mxCell>
        <mxCell id="c-RoGRiOBo4SbbYrfxfl-22" value="" style="edgeStyle=orthogonalEdgeStyle;rounded=0;orthogonalLoop=1;jettySize=auto;html=1;" edge="1" parent="WIyWlLk6GJQsqaUBKTNV-1" source="c-RoGRiOBo4SbbYrfxfl-17" target="c-RoGRiOBo4SbbYrfxfl-21">
          <mxGeometry relative="1" as="geometry" />
        </mxCell>
        <mxCell id="c-RoGRiOBo4SbbYrfxfl-26" style="edgeStyle=orthogonalEdgeStyle;rounded=0;orthogonalLoop=1;jettySize=auto;html=1;entryX=0.5;entryY=1;entryDx=0;entryDy=0;fontSize=13;" edge="1" parent="WIyWlLk6GJQsqaUBKTNV-1" source="c-RoGRiOBo4SbbYrfxfl-17" target="c-RoGRiOBo4SbbYrfxfl-19">
          <mxGeometry relative="1" as="geometry" />
        </mxCell>
        <mxCell id="c-RoGRiOBo4SbbYrfxfl-17" value="Receber pagamento" style="ellipse;whiteSpace=wrap;html=1;fillColor=#fff2cc;strokeColor=#d6b656;" vertex="1" parent="WIyWlLk6GJQsqaUBKTNV-1">
          <mxGeometry x="310" y="890" width="120" height="80" as="geometry" />
        </mxCell>
        <mxCell id="c-RoGRiOBo4SbbYrfxfl-19" value="Atualizar estoque" style="ellipse;whiteSpace=wrap;html=1;fillColor=#fff2cc;strokeColor=#d6b656;" vertex="1" parent="WIyWlLk6GJQsqaUBKTNV-1">
          <mxGeometry x="530" y="760" width="120" height="80" as="geometry" />
        </mxCell>
        <mxCell id="c-RoGRiOBo4SbbYrfxfl-20" value="Entregar revista" style="ellipse;whiteSpace=wrap;html=1;fillColor=#fff2cc;strokeColor=#d6b656;" vertex="1" parent="WIyWlLk6GJQsqaUBKTNV-1">
          <mxGeometry x="510" y="1110" width="120" height="80" as="geometry" />
        </mxCell>
        <mxCell id="c-RoGRiOBo4SbbYrfxfl-24" style="edgeStyle=orthogonalEdgeStyle;rounded=0;orthogonalLoop=1;jettySize=auto;html=1;" edge="1" parent="WIyWlLk6GJQsqaUBKTNV-1" source="c-RoGRiOBo4SbbYrfxfl-21" target="c-RoGRiOBo4SbbYrfxfl-20">
          <mxGeometry relative="1" as="geometry" />
        </mxCell>
        <mxCell id="c-RoGRiOBo4SbbYrfxfl-21" value="Embalar a revista" style="ellipse;whiteSpace=wrap;html=1;fillColor=#fff2cc;strokeColor=#d6b656;" vertex="1" parent="WIyWlLk6GJQsqaUBKTNV-1">
          <mxGeometry x="310" y="1020" width="120" height="80" as="geometry" />
        </mxCell>
      </root>
    </mxGraphModel>
  </diagram>
</mxfile>
